<?xml version="1.0" standalone="no"?>
<!DOCTYPE svg PUBLIC "-//W3C//DTD SVG 20010904//EN"
 "http://www.w3.org/TR/2001/REC-SVG-20010904/DTD/svg10.dtd">
<svg version="1.0" xmlns="http://www.w3.org/2000/svg"
 width="1200.000000pt" height="1200.000000pt" viewBox="0 0 1200.000000 1200.000000"
 preserveAspectRatio="xMidYMid meet">
<metadata>
Created by potrace 1.14, written by Peter Selinger 2001-2017
</metadata>
<g transform="translate(0.000000,1200.000000) scale(0.100000,-0.100000)"
fill="#000000" stroke="none">
<path d="M5699 11826 c-2 -2 -53 -7 -114 -11 -136 -8 -221 -16 -315 -30 -14
-2 -61 -9 -105 -15 -44 -6 -129 -20 -190 -32 -60 -11 -121 -22 -135 -24 -26
-5 -59 -12 -99 -20 -14 -3 -28 -7 -31 -9 -4 -2 -22 -7 -41 -10 -109 -18 -349
-90 -654 -195 -267 -92 -669 -283 -953 -452 -267 -159 -564 -368 -776 -548
-539 -456 -953 -941 -1306 -1530 -82 -135 -262 -491 -329 -646 -214 -502 -369
-1071 -425 -1559 -4 -33 -9 -67 -11 -75 -2 -8 -7 -58 -11 -110 -3 -52 -8 -97
-9 -100 -5 -9 -18 -324 -18 -455 0 -124 10 -423 17 -485 3 -19 7 -66 11 -105
3 -38 8 -81 10 -95 2 -14 6 -52 10 -85 5 -51 47 -310 59 -370 2 -11 12 -56 21
-100 9 -44 18 -87 20 -95 1 -8 8 -35 15 -60 7 -25 14 -53 15 -62 16 -81 108
-380 166 -543 157 -432 360 -837 613 -1220 58 -89 175 -255 186 -265 3 -3 18
-23 34 -45 30 -40 181 -230 201 -251 5 -7 37 -43 70 -80 246 -282 583 -596
870 -811 55 -41 107 -80 115 -86 28 -23 315 -213 365 -242 28 -17 58 -34 67
-40 133 -80 415 -228 572 -299 340 -155 837 -320 1145 -381 9 -2 52 -11 96
-20 44 -9 96 -18 115 -21 19 -2 42 -6 50 -9 8 -3 33 -7 55 -10 22 -2 51 -7 65
-9 14 -3 50 -8 81 -11 31 -3 67 -8 80 -10 12 -3 52 -7 88 -10 36 -3 77 -7 91
-10 14 -2 70 -7 125 -10 55 -4 123 -8 150 -10 64 -5 473 -5 545 0 121 7 278
21 360 30 109 13 218 27 240 31 14 2 41 7 60 10 19 3 73 12 120 21 47 8 95 17
108 19 13 3 83 18 155 35 73 17 139 32 147 34 8 2 71 20 140 40 468 134 915
326 1340 573 90 52 339 210 350 222 3 3 34 25 70 50 36 24 72 50 80 57 8 7 58
45 111 85 53 40 120 94 150 119 30 26 87 75 128 110 204 173 487 465 677 697
10 13 27 33 38 45 59 69 258 345 338 468 127 197 140 220 245 409 115 208 259
526 342 760 29 80 56 155 61 167 28 69 146 502 165 603 4 22 13 71 28 145 3
11 7 36 11 55 3 19 8 45 10 56 32 161 57 394 81 754 6 90 7 443 1 485 -2 17
-7 73 -11 125 -7 108 -12 172 -20 242 -3 26 -7 72 -10 101 -5 43 -40 269 -60
382 -12 70 -58 274 -89 395 -66 260 -195 627 -317 901 -83 187 -242 487 -357
674 -97 156 -299 444 -394 560 -185 225 -254 301 -453 500 -251 251 -346 335
-595 526 -106 82 -462 329 -473 329 -2 0 -46 26 -98 57 -197 119 -463 252
-704 353 -44 18 -93 39 -110 46 -16 6 -87 33 -157 58 -112 40 -175 61 -371
122 -51 16 -316 83 -357 90 -14 3 -67 14 -118 24 -51 11 -114 22 -140 26 -26
3 -56 8 -67 10 -38 8 -160 25 -210 30 -27 3 -61 7 -74 9 -12 2 -60 7 -105 10
-44 3 -99 9 -121 12 -46 6 -740 14 -746 9z"/>
</g>
</svg>
